<svg width="512" height="512" viewBox="0 0 512 512" fill="none" xmlns="http://www.w3.org/2000/svg">
<rect width="512" height="512" rx="256" fill="#F43F5E"/>
<rect x="48" y="67.4005" width="360" height="360" rx="180" fill="white"/>
<path d="M273.537 134.195L281.412 142.07L289.287 134.195L281.412 126.321L273.537 134.195ZM145.662 277.821L281.412 142.07L265.663 126.321L129.912 262.071L145.662 277.821ZM281.412 126.321L263.626 108.534L247.876 124.284L265.663 142.07L281.412 126.321ZM202.084 112.908L104.908 242.475L122.727 255.839L219.902 126.272L202.084 112.908ZM104.908 242.475C96.8341 253.241 97.9047 268.305 107.42 277.821L123.17 262.071C121.492 260.393 121.303 257.737 122.727 255.839L104.908 242.475ZM263.626 108.534C246.054 90.9627 216.994 93.0278 202.084 112.908L219.902 126.272C226.68 117.235 239.889 116.297 247.876 124.284L263.626 108.534ZM129.912 262.071C128.05 263.933 125.032 263.933 123.17 262.071L107.42 277.821C117.98 288.381 135.102 288.381 145.662 277.821L129.912 262.071Z" fill="black"/>
<path d="M231.538 297.132L315.536 213.134" stroke="#F43F5E" stroke-width="32" stroke-linecap="round"/>
<path d="M268.287 333.881L326.036 276.132" stroke="#F43F5E" stroke-width="32" stroke-linecap="round"/>
<path d="M127.716 274.957L264.212 411.454C281.609 428.851 309.716 428.949 326.99 411.674L431.254 307.411C448.529 290.136 448.43 262.03 431.033 244.633L378.535 192.134M127.716 274.957L117.216 264.457M127.716 274.957L263.258 139.415C280.533 122.14 308.639 122.239 326.036 139.635L336.536 150.135" stroke="black" stroke-width="32" stroke-linecap="round"/>
</svg>
